<svg width="254" height="55" viewBox="0 0 254 55" fill="none" xmlns="http://www.w3.org/2000/svg">
<path d="M15.1061 43V5.92663H0.874167V0.831241H35.5463V5.92663H21.3143V43H15.1061ZM38.6169 55.0064L45.8208 38.5489L47.0507 36.6161L56.1287 13.1305H62.454L44.8837 55.0064H38.6169ZM45.5279 43L32.7602 13.1305H39.3783L50.2134 40.013L45.5279 43ZM67.4483 43V13.1305H73.2465V20.1586H73.5393V43H67.4483ZM87.5956 43V23.4969C87.5956 21.4666 87.127 19.9829 86.19 19.0458C85.2529 18.1087 83.9058 17.6402 82.1488 17.6402C80.5089 17.6402 79.0252 18.0306 77.6976 18.8115C76.4091 19.5534 75.394 20.6076 74.6521 21.9742C73.9103 23.3017 73.5393 24.8831 73.5393 26.7182L72.7779 19.7486C73.7541 17.523 75.2183 15.766 77.1705 14.4775C79.1618 13.189 81.3874 12.5448 83.8472 12.5448C86.8147 12.5448 89.1769 13.4038 90.9339 15.1218C92.73 16.8398 93.6281 19.1044 93.6281 21.9156V43H87.5956ZM107.743 43V23.4969C107.743 21.4666 107.255 19.9829 106.279 19.0458C105.342 18.1087 103.995 17.6402 102.238 17.6402C100.637 17.6402 99.1725 18.0306 97.8449 18.8115C96.5564 19.5534 95.5217 20.6076 94.7408 21.9742C93.999 23.3017 93.6281 24.8831 93.6281 26.7182L92.3981 19.7486C93.4133 17.523 94.9361 15.766 96.9664 14.4775C99.0358 13.189 101.339 12.5448 103.877 12.5448C106.884 12.5448 109.285 13.4233 111.081 15.1803C112.877 16.8983 113.775 19.202 113.775 22.0913V43H107.743ZM131.334 43.5857C129.343 43.5857 127.586 43.1757 126.063 42.3558C124.54 41.4968 123.349 40.3254 122.49 38.8417C121.671 37.358 121.261 35.6595 121.261 33.7463V13.1305H127.352V32.3407C127.352 34.4101 127.859 35.9524 128.874 36.9675C129.89 37.9827 131.334 38.4903 133.208 38.4903C134.887 38.4903 136.371 38.0998 137.66 37.3189C138.987 36.538 140.022 35.4643 140.764 34.0977C141.545 32.6921 141.935 31.0717 141.935 29.2366L142.696 36.3818C141.72 38.5684 140.217 40.3254 138.187 41.6529C136.195 42.9414 133.911 43.5857 131.334 43.5857ZM142.169 43V35.9719H141.935V13.1305H147.967V43H142.169ZM156.501 43V13.1305H162.299V20.5686H162.592V43H156.501ZM162.592 27.421L161.831 20.3343C162.533 17.7964 163.744 15.8636 165.462 14.5361C167.18 13.2086 169.23 12.5448 171.611 12.5448C172.509 12.5448 173.134 12.6229 173.486 12.7791V18.5187C173.29 18.4406 173.017 18.4016 172.666 18.4016C172.314 18.3625 171.885 18.343 171.377 18.343C168.449 18.343 166.243 19.1044 164.759 20.6271C163.314 22.1499 162.592 24.4145 162.592 27.421ZM178.407 43V13.1305H184.498V43H178.407ZM178.114 7.27369V0.421265H184.849V7.27369H178.114ZM205.819 43.5857C202.813 43.5857 200.158 42.9219 197.854 41.5944C195.589 40.2668 193.813 38.4317 192.524 36.089C191.236 33.7463 190.591 31.0522 190.591 28.0067C190.591 24.9221 191.216 22.228 192.466 19.9243C193.754 17.5816 195.55 15.766 197.854 14.4775C200.158 13.189 202.793 12.5448 205.761 12.5448C208.65 12.5448 211.149 13.1695 213.257 14.419C215.405 15.6294 217.045 17.3278 218.177 19.5143C219.348 21.7009 219.934 24.2974 219.934 27.3039C219.934 27.7724 219.914 28.2214 219.875 28.6509C219.875 29.0414 219.836 29.4513 219.758 29.8808H194.691V25.3125H215.483L213.96 27.1281C213.96 23.9264 213.238 21.4861 211.793 19.8072C210.348 18.1282 208.338 17.2888 205.761 17.2888C202.988 17.2888 200.782 18.2454 199.142 20.1586C197.542 22.0328 196.741 24.6488 196.741 28.0067C196.741 31.4036 197.542 34.0587 199.142 35.9719C200.782 37.8851 203.047 38.8417 205.936 38.8417C207.693 38.8417 209.216 38.4903 210.505 37.7875C211.793 37.0456 212.75 35.9719 213.374 34.5662H219.114C218.138 37.3775 216.478 39.5835 214.136 41.1844C211.832 42.7853 209.06 43.5857 205.819 43.5857ZM226.165 43V13.1305H231.963V20.1586H232.256V43H226.165ZM247.366 43V23.7898C247.366 21.7204 246.839 20.1781 245.785 19.1629C244.77 18.1478 243.247 17.6402 241.216 17.6402C239.459 17.6402 237.898 18.0306 236.531 18.8115C235.203 19.5924 234.149 20.6662 233.368 22.0328C232.626 23.3993 232.256 25.0197 232.256 26.8939L231.494 19.7486C232.47 17.523 233.974 15.766 236.004 14.4775C238.034 13.189 240.396 12.5448 243.091 12.5448C246.292 12.5448 248.811 13.4428 250.646 15.2389C252.481 17.035 253.399 19.4167 253.399 22.3842V43H247.366Z" fill="#FCFAFA"/>
</svg>
