<svg width="121" height="27" viewBox="0 0 121 27" fill="none" xmlns="http://www.w3.org/2000/svg">
<path d="M7.6 21V3.50618H0.884364V1.10182H17.2451V3.50618H10.5295V21H7.6ZM18.6941 26.6655L22.0933 18.8996L22.6737 17.9876L26.9573 6.90545H29.9421L21.6511 26.6655H18.6941ZM21.9551 21L15.9304 6.90545H19.0533L24.1661 19.5905L21.9551 21ZM32.2987 21V6.90545H35.0347V10.2218H35.1729V21H32.2987ZM41.8056 21V11.7971C41.8056 10.839 41.5845 10.1389 41.1423 9.69673C40.7002 9.25455 40.0645 9.03345 39.2354 9.03345C38.4616 9.03345 37.7615 9.2177 37.1351 9.58618C36.5271 9.93624 36.048 10.4337 35.698 11.0785C35.3479 11.705 35.1729 12.4512 35.1729 13.3171L34.8136 10.0284C35.2742 8.97818 35.9651 8.14909 36.8863 7.54109C37.826 6.93309 38.8762 6.62909 40.0369 6.62909C41.4371 6.62909 42.5518 7.03442 43.3809 7.84509C44.2284 8.65576 44.6522 9.72436 44.6522 11.0509V21H41.8056ZM51.3125 21V11.7971C51.3125 10.839 51.0822 10.1389 50.6216 9.69673C50.1794 9.25455 49.5438 9.03345 48.7147 9.03345C47.9593 9.03345 47.2684 9.2177 46.642 9.58618C46.034 9.93624 45.5457 10.4337 45.1773 11.0785C44.8272 11.705 44.6522 12.4512 44.6522 13.3171L44.0718 10.0284C44.5508 8.97818 45.2694 8.14909 46.2274 7.54109C47.2039 6.93309 48.2909 6.62909 49.4885 6.62909C50.9072 6.62909 52.0403 7.04364 52.8878 7.87273C53.7353 8.68339 54.1591 9.77042 54.1591 11.1338V21H51.3125ZM62.4446 21.2764C61.5049 21.2764 60.6758 21.0829 59.9573 20.696C59.2388 20.2907 58.6768 19.7379 58.2715 19.0378C57.8846 18.3377 57.6911 17.5362 57.6911 16.6335V6.90545H60.5653V15.9702C60.5653 16.9467 60.8048 17.6744 61.2838 18.1535C61.7629 18.6325 62.4446 18.872 63.3289 18.872C64.1212 18.872 64.8213 18.6878 65.4293 18.3193C66.0557 17.9508 66.544 17.4441 66.894 16.7993C67.2625 16.136 67.4468 15.3714 67.4468 14.5055L67.806 17.8771C67.3454 18.9088 66.6361 19.7379 65.678 20.3644C64.7384 20.9724 63.6606 21.2764 62.4446 21.2764ZM67.5573 21V17.6836H67.4468V6.90545H70.2933V21H67.5573ZM74.32 21V6.90545H77.056V10.4153H77.1942V21H74.32ZM77.1942 13.6487L76.8349 10.3047C77.1666 9.10715 77.7377 8.19515 78.5484 7.56873C79.359 6.9423 80.3263 6.62909 81.4502 6.62909C81.8739 6.62909 82.1687 6.66594 82.3346 6.73964V9.448C82.2424 9.41115 82.1135 9.39273 81.9476 9.39273C81.7818 9.3743 81.5792 9.36509 81.3396 9.36509C79.9578 9.36509 78.9169 9.72436 78.2167 10.4429C77.535 11.1615 77.1942 12.2301 77.1942 13.6487ZM84.6567 21V6.90545H87.5308V21H84.6567ZM84.5185 4.14182V0.908363H87.6967V4.14182H84.5185ZM97.5918 21.2764C96.1731 21.2764 94.9203 20.9632 93.8332 20.3367C92.7646 19.7103 91.9263 18.8444 91.3183 17.7389C90.7103 16.6335 90.4063 15.3622 90.4063 13.9251C90.4063 12.4696 90.7011 11.1983 91.2907 10.1113C91.8987 9.00582 92.7462 8.14909 93.8332 7.54109C94.9203 6.93309 96.1639 6.62909 97.5641 6.62909C98.9275 6.62909 100.107 6.92388 101.102 7.51345C102.115 8.08461 102.889 8.88606 103.423 9.91782C103.976 10.9496 104.252 12.1748 104.252 13.5935C104.252 13.8145 104.243 14.0264 104.224 14.2291C104.224 14.4133 104.206 14.6068 104.169 14.8095H92.3409V12.6538H102.152L101.433 13.5105C101.433 11.9998 101.092 10.8482 100.411 10.056C99.729 9.26376 98.7801 8.86764 97.5641 8.86764C96.256 8.86764 95.215 9.31903 94.4412 10.2218C93.6858 11.1062 93.3081 12.3406 93.3081 13.9251C93.3081 15.528 93.6858 16.7808 94.4412 17.6836C95.215 18.5864 96.2836 19.0378 97.647 19.0378C98.4761 19.0378 99.1947 18.872 99.8027 18.5404C100.411 18.1903 100.862 17.6836 101.157 17.0204H103.865C103.405 18.3469 102.622 19.3879 101.516 20.1433C100.429 20.8987 99.121 21.2764 97.5918 21.2764ZM107.192 21V6.90545H109.928V10.2218H110.066V21H107.192ZM117.197 21V11.9353C117.197 10.9588 116.948 10.231 116.45 9.752C115.971 9.27297 115.253 9.03345 114.295 9.03345C113.466 9.03345 112.729 9.2177 112.084 9.58618C111.457 9.95467 110.96 10.4613 110.591 11.1062C110.241 11.751 110.066 12.5156 110.066 13.4L109.707 10.0284C110.168 8.97818 110.877 8.14909 111.835 7.54109C112.793 6.93309 113.908 6.62909 115.179 6.62909C116.69 6.62909 117.878 7.05285 118.744 7.90036C119.61 8.74788 120.043 9.87176 120.043 11.272V21H117.197Z" fill="#FCFAFA"/>
</svg>
